<?xml version="1.0" encoding="iso-8859-1"?>
<!-- Generator: Adobe Illustrator 19.0.0, SVG Export Plug-In . SVG Version: 6.00 Build 0)  -->
<svg version="1.1" id="Capa_1" xmlns="http://www.w3.org/2000/svg" xmlns:xlink="http://www.w3.org/1999/xlink" x="0px" y="0px"
	 viewBox="0 0 512 512" style="enable-background:new 0 0 512 512;" xml:space="preserve">
<g>
	<g>
		<path d="M386.324,67.748c-7.017-20.106-20.739-28.725-29.599-32.309c0.708-14.194-5.056-22.76-10.489-27.631
			C340.611,2.773,333.159,0,325.25,0h-94.437c-59.142,0-107.256,48.115-107.255,107.256v231.74c0,4.78,3.876,8.656,8.656,8.656
			h2.307c1.436,0,2.849-0.357,4.113-1.04l35.8-19.333c0.959-0.518,1.811-1.212,2.512-2.046l0.866-1.029
			c0.293-0.161,0.581-0.342,0.86-0.541c4.288-3.058,8.104-6.451,11.34-10.083c6.855-7.691,10.63-17.766,10.63-28.371v-5.132
			c0-1.943-0.654-3.829-1.856-5.355c-23.775-30.192-37.432-75.314-37.487-123.838c0.218-2.754,2.931-27.31,30.244-30.115h32.698
			c9.31,0,18.453-1.268,27.174-3.771c10.202-2.928,18.861-6.861,25.811-11.717l56.203,18.734c3.272,2.54,15.249,12.726,17.363,27.16
			c-0.11,48.471-13.785,93.508-37.558,123.639c-1.206,1.527-1.861,3.416-1.861,5.361v5.034c0,10.605,3.774,20.681,10.629,28.371
			c3.234,3.628,7.043,7.019,11.319,10.077c0.281,0.201,0.571,0.383,0.867,0.545l0.866,1.03c0.701,0.835,1.554,1.53,2.515,2.048
			l35.801,19.333c1.263,0.683,2.677,1.04,4.113,1.04h2.316c4.78,0,8.656-3.876,8.656-8.656V80.367
			C388.452,76.036,387.736,71.79,386.324,67.748z M371.14,325.735l-23.894-12.903l-1.875-2.23c-1.131-1.345-2.63-2.3-4.288-2.766
			c-2.296-1.824-4.361-3.759-6.159-5.777c-4.025-4.514-6.241-10.499-6.241-16.85v-2.082c25.086-33.192,39.42-81.28,39.42-132.539
			c0-0.37-0.023-0.74-0.07-1.107c-3.209-24.879-24.793-39.786-25.71-40.408c-0.657-0.446-1.371-0.8-2.123-1.05l-61.836-20.613
			c-2.847-0.948-5.976-0.357-8.28,1.563c-5.571,4.644-13.679,8.581-23.445,11.383c-7.168,2.057-14.704,3.1-22.399,3.1h-33.122
			c-0.272,0-0.542,0.013-0.813,0.038c-34.65,3.27-45.44,31.903-46.303,46.587c-0.011,0.17-0.015,0.339-0.015,0.509
			c0,51.196,14.307,99.249,39.342,132.436v2.185c0,6.352-2.216,12.335-6.243,16.854c-1.796,2.017-3.86,3.95-6.157,5.77
			c-1.662,0.464-3.165,1.42-4.298,2.767l-1.875,2.23l-23.887,12.9V107.256c0-49.595,40.349-89.944,89.944-89.944h94.437
			c3.641,0,6.993,1.205,9.434,3.391c4.408,3.951,5.779,10.426,4.076,19.249c-0.448,2.325,0.076,4.734,1.451,6.663
			c1.375,1.929,3.48,3.21,5.826,3.546c0.166,0.024,16.728,2.616,23.943,23.293c0.77,2.205,1.161,4.53,1.161,6.912V325.735z"/>
	</g>
</g>
<g>
	<g>
		<path d="M346.959,315.64c-0.276-2.436-1.572-4.64-3.566-6.066c-3.235-2.312-6.083-4.84-8.465-7.513
			c-4.025-4.514-6.241-10.499-6.241-16.85v-5.034c0-3.689-2.336-6.972-5.821-8.179c-3.48-1.206-7.35-0.077-9.633,2.82
			c-0.431,0.547-0.847,1.125-1.262,1.705c-0.332,0.466-0.647,0.908-0.88,1.186c-16.332,19.5-35.365,29.807-55.043,29.807
			c-19.71,0-38.769-10.338-55.116-29.895c-0.233-0.279-0.546-0.718-0.879-1.186c-0.416-0.582-0.833-1.163-1.266-1.713
			c-2.282-2.897-6.148-4.029-9.634-2.822c-3.485,1.208-5.822,4.49-5.822,8.179v5.132c0,6.352-2.216,12.335-6.243,16.854
			c-2.379,2.672-5.226,5.196-8.464,7.503c-1.998,1.424-3.298,3.63-3.576,6.069c-0.278,2.438,0.492,4.88,2.119,6.717
			c0.368,0.416,1.099,1.251,2.393,2.822c3.986,4.846,12.177,15.52,22.256,32.561c0.988,1.672,2.511,2.964,4.322,3.665
			c19.257,7.464,39.398,11.249,59.865,11.249c20.467,0,40.607-3.785,59.862-11.25c1.811-0.702,3.333-1.993,4.322-3.665
			c10.092-17.064,18.278-27.725,22.26-32.563c1.298-1.579,2.029-2.409,2.396-2.823C346.465,320.514,347.235,318.077,346.959,315.64z
			 M306.852,346.297c-16.411,6-33.504,9.041-50.849,9.041c-17.347,0-34.441-3.04-50.855-9.041
			c-7.975-13.234-14.797-22.673-19.302-28.466c1.477-1.374,2.868-2.792,4.166-4.249c3.573-4.009,6.309-8.666,8.111-13.707
			c17.409,16.381,37.201,24.955,57.924,24.955c20.696,0,40.469-8.557,57.865-24.901c1.802,5.021,4.53,9.659,8.09,13.653
			c0.001,0,0.001,0,0.001,0c1.296,1.454,2.686,2.87,4.159,4.242C321.661,323.608,314.839,333.045,306.852,346.297z"/>
	</g>
</g>
<g>
	<g>
		<path d="M368.033,149.482c-3.209-24.879-24.793-39.786-25.71-40.408c-0.657-0.446-1.371-0.799-2.123-1.05l-61.836-20.613
			c-2.847-0.948-5.976-0.357-8.28,1.562c-5.571,4.644-13.679,8.581-23.445,11.383c-7.168,2.057-14.704,3.1-22.399,3.1h-33.122
			c-0.272,0-0.542,0.013-0.813,0.038c-34.65,3.27-45.44,31.903-46.303,46.587c-0.011,0.17-0.015,0.339-0.015,0.509
			c0,52.448,15.016,101.597,41.198,134.845c0.263,0.334,0.513,0.69,0.765,1.044c0.485,0.682,1.036,1.454,1.698,2.246
			c19.742,23.619,43.394,36.103,68.398,36.103c24.966,0,48.589-12.45,68.314-36.006c0.663-0.792,1.214-1.564,1.7-2.245
			c0.252-0.354,0.503-0.71,0.763-1.041c26.235-33.249,41.281-82.435,41.281-134.947
			C368.104,150.219,368.081,149.849,368.033,149.482z M313.231,274.819c-0.431,0.547-0.847,1.125-1.262,1.705
			c-0.332,0.466-0.647,0.908-0.88,1.186c-16.332,19.5-35.365,29.807-55.043,29.807c-19.71,0-38.769-10.338-55.116-29.895
			c-0.233-0.279-0.546-0.718-0.879-1.186c-0.414-0.582-0.833-1.163-1.265-1.712c-23.775-30.192-37.432-75.315-37.487-123.839
			c0.219-2.759,2.934-27.31,30.244-30.113h32.698c9.31,0,18.453-1.268,27.174-3.771c10.202-2.928,18.861-6.861,25.811-11.717
			l56.203,18.734c3.272,2.538,15.25,12.724,17.363,27.16C350.682,199.647,337.007,244.685,313.231,274.819z"/>
	</g>
</g>
<g>
	<g>
		<path d="M320.806,350.202c-1.728-4.457-6.744-6.667-11.2-4.942c-17.25,6.687-35.284,10.078-53.603,10.078
			c-18.319,0-36.355-3.39-53.608-10.078c-4.462-1.729-9.473,0.485-11.2,4.942c-1.729,4.459,0.484,9.472,4.942,11.2
			c19.257,7.464,39.398,11.249,59.865,11.249c20.467,0,40.607-3.785,59.862-11.249C320.322,359.674,322.535,354.659,320.806,350.202
			z"/>
	</g>
</g>
<g>
	<g>
		<path d="M262.599,497.738l-77.471-91.292c0-0.001-0.001-0.001-0.001-0.002c-0.173-0.203-0.701-0.826-0.235-1.802
			c0.467-0.978,1.277-0.964,1.551-0.954l6.536,0.153c3.463,0.048,6.669-1.929,8.096-5.104c1.427-3.175,0.815-6.896-1.555-9.445
			l-39.126-42.089c-0.575-0.619-0.598-1.573-0.056-2.218l16.607-19.748c2.676-3.181,2.712-7.814,0.088-11.038
			c-2.624-3.222-7.167-4.122-10.826-2.15l-83.081,44.866c-0.161,0.087-0.319,0.179-0.475,0.276
			c-1.619,1.012-39.629,25.22-39.629,64.386v81.767c0,4.78,3.876,8.656,8.656,8.656h204.32c4.126,0,7.68-2.918,8.49-6.964
			C265.006,502.442,264.31,499.754,262.599,497.738z M60.333,494.688v-73.112c0-28.309,28.753-47.901,31.313-49.588l51.065-27.577
			c-0.449,5.19,1.23,10.521,5,14.578l28.294,30.436c-2.845,1.86-5.186,4.506-6.74,7.765c-3.263,6.841-2.243,14.679,2.662,20.457
			l65.376,77.04H60.333z"/>
	</g>
</g>
<g>
	<g>
		<path d="M264.451,501.462c-10.263-46.416-24.97-89.023-43.712-126.635c-4.606-9.244-9.325-17.958-14.023-25.901
			c-10.671-18.044-19.483-29.515-23.791-34.752c-1.438-1.745-2.285-2.716-2.796-3.294l-0.372-0.422
			c-1.645-1.872-4.014-2.942-6.502-2.942c-0.031,0-0.064,0-0.095,0.001c-2.522,0.028-4.907,1.155-6.53,3.085l-19.545,23.241
			c-6.157,7.324-5.888,18.134,0.626,25.144l28.294,30.438c-2.844,1.86-5.186,4.506-6.74,7.765
			c-3.263,6.841-2.243,14.68,2.662,20.458l77.47,91.29c1.663,1.96,4.087,3.052,6.597,3.052c0.609,0,1.223-0.065,1.831-0.194
			c3.122-0.674,5.619-3.016,6.497-6.086C264.717,504.326,264.761,502.867,264.451,501.462z M185.126,406.444
			c-0.173-0.203-0.701-0.826-0.235-1.802c0.425-0.889,1.137-0.955,1.464-0.955c0.032,0,0.062,0,0.087,0.001l6.537,0.153
			c3.462,0.048,6.669-1.929,8.096-5.104c1.427-3.175,0.815-6.896-1.555-9.445l-39.126-42.089c-0.575-0.619-0.598-1.573-0.056-2.218
			l12.826-15.253c4.461,5.836,11.014,15.092,18.652,28.007c4.488,7.588,9.007,15.935,13.429,24.809
			c13.187,26.464,24.318,55.537,33.24,86.773L185.126,406.444z"/>
	</g>
</g>
<g>
	<g>
		<path d="M429.35,357.191c-0.155-0.097-0.314-0.189-0.474-0.276l-83.083-44.866c-3.657-1.975-8.202-1.071-10.826,2.151
			c-2.624,3.222-2.587,7.856,0.088,11.037l16.608,19.748c0.543,0.645,0.518,1.598-0.056,2.217l-39.125,42.091
			c-2.371,2.549-2.982,6.269-1.555,9.444c1.426,3.175,4.646,5.154,8.096,5.104l6.534-0.153c0.273-0.012,1.082-0.027,1.552,0.953
			c0.465,0.977-0.062,1.599-0.236,1.804l-77.477,91.297c-2.182,2.572-2.668,6.177-1.252,9.237c1.417,3.061,4.487,5.021,7.86,5.021
			h204.318c4.78,0,8.656-3.876,8.656-8.656v-81.767C468.979,382.411,430.967,358.202,429.35,357.191z M451.668,494.688H274.696
			l65.376-77.038c4.905-5.778,5.926-13.617,2.663-20.459c-1.554-3.259-3.894-5.904-6.74-7.764l28.292-30.436
			c3.771-4.057,5.45-9.388,5.002-14.577l51.074,27.581c2.624,1.713,31.304,21.118,31.304,49.583V494.688z"/>
	</g>
</g>
<g>
	<g>
		<path d="M364.915,333.842l-19.54-23.238c-1.623-1.933-4.008-3.06-6.531-3.088c-2.517,0.026-4.933,1.047-6.598,2.942l-0.371,0.423
			c-0.577,0.651-1.415,1.613-2.797,3.294c-4.298,5.223-13.107,16.683-23.793,34.75c-4.661,7.88-9.34,16.517-13.907,25.667
			c-18.796,37.668-33.542,80.352-43.829,126.866c-0.013,0.057-0.027,0.124-0.039,0.182c-0.017,0.092-0.036,0.189-0.051,0.281
			c-0.641,3.841,1.363,7.636,4.895,9.275c1.169,0.543,2.411,0.804,3.64,0.804c2.483,0,4.918-1.07,6.605-3.055l77.475-91.297
			c4.905-5.778,5.926-13.617,2.663-20.459c-1.554-3.259-3.894-5.905-6.74-7.764l28.291-30.436
			C370.805,351.98,371.075,341.168,364.915,333.842z M351.607,347.201l-39.125,42.091c-2.371,2.549-2.982,6.269-1.555,9.444
			c1.426,3.175,4.646,5.154,8.096,5.104l6.534-0.153c0.273-0.012,1.082-0.027,1.552,0.953c0.465,0.977-0.062,1.599-0.236,1.804
			l-53.358,62.877c8.947-31.327,20.117-60.475,33.352-86.999c4.383-8.784,8.865-17.055,13.318-24.584
			c7.643-12.925,14.194-22.175,18.652-28.006l12.826,15.252C352.206,345.629,352.182,346.583,351.607,347.201z"/>
	</g>
</g>
<g>
</g>
<g>
</g>
<g>
</g>
<g>
</g>
<g>
</g>
<g>
</g>
<g>
</g>
<g>
</g>
<g>
</g>
<g>
</g>
<g>
</g>
<g>
</g>
<g>
</g>
<g>
</g>
<g>
</g>
</svg>
